<svg width="42" height="44" viewBox="0 0 42 44" fill="none" xmlns="http://www.w3.org/2000/svg">
<path d="M24.9796 0.5L28.7736 7.07147L28.7621 7.09146L24.7664 14.0122H17.2336L13.2379 7.09146L13.2263 7.07145L17.0204 0.5H24.9796ZM12.145 7.84146L16.0754 14.649L12.2044 21.3537H4.39901L0.57735 14.7344L4.55697 7.84146H12.145ZM0.57735 29.2466L4.39901 22.6273H12.303L16.0754 29.1612L12.0465 36.1395H4.55697L0.57735 29.2466ZM17.0204 43.3102L13.2756 36.8241L17.3322 29.798H24.6678L28.7244 36.8241L24.9796 43.3102H17.0204ZM37.443 36.1395H29.9535L25.9246 29.1612L29.697 22.6273H37.601L41.4226 29.2466L37.443 36.1395ZM41.4226 14.7344L37.601 21.3537H29.7956L25.9246 14.649L29.8549 7.84146H37.443L41.4226 14.7344ZM17.3322 15.2858L24.6678 15.2858L28.5388 21.9905L24.7664 28.5244H17.2336L13.4612 21.9905L17.3322 15.2858Z" fill="#F6E05E" stroke="#ECC94B"/>
</svg>
