<svg width="42" height="37" viewBox="0 0 42 37" fill="none" xmlns="http://www.w3.org/2000/svg">
<rect x="14" y="16" width="13" height="19" fill="#FAF089"/>
<rect x="28" y="28" width="13" height="7" fill="#FAF089"/>
<rect x="1" y="22" width="13" height="13" fill="#FAF089"/>
<rect y="34.4615" width="42" height="2.15385" rx="1.07692" fill="#ECC94B"/>
<rect x="39.8734" y="36.6154" width="10.7692" height="2.12658" rx="1.06329" transform="rotate(-90 39.8734 36.6154)" fill="#ECC94B"/>
<rect width="15.0769" height="2.15385" rx="1.07692" transform="matrix(-1 0 0 1 42 25.8462)" fill="#ECC94B"/>
<rect width="21.5385" height="2.15385" rx="1.07692" transform="matrix(0 -1 -1 0 28.5385 36.6154)" fill="#ECC94B"/>
<rect width="15.6154" height="2.15385" rx="1.07692" transform="matrix(-1 0 0 1 28.5385 15.0769)" fill="#ECC94B"/>
<rect width="21.5385" height="2.15385" rx="1.07692" transform="matrix(0 -1 -1 0 15.0769 36.6154)" fill="#ECC94B"/>
<rect width="15.6154" height="2.15385" rx="1.07692" transform="matrix(0 -1 -1 0 2.15384 36.6154)" fill="#ECC94B"/>
<rect width="14.8861" height="2.15385" rx="1.07692" transform="matrix(-1 0 0 1 14.8861 21)" fill="#ECC94B"/>
<path d="M21.9605 0.05L23.1526 2.11557H23.1473H23.1184L23.104 2.14058L21.8976 4.23079H19.5639L18.3576 2.14058L18.3431 2.11557H18.3142H18.3089L19.501 0.05L21.9605 0.05ZM18.1759 2.21557L19.3911 4.32114L18.1934 6.39637H15.7971H15.7793L14.5962 4.34632L15.8259 2.21557H18.1759ZM18.3089 6.39637L19.4544 4.4115H19.4722H19.4775L18.332 6.39637H18.3142H18.3089ZM18.3953 6.48672L19.593 4.4115L21.8686 4.4115L23.0662 6.48672L21.8976 8.51158H19.5639L18.3953 6.48672ZM23.1296 6.39637L21.984 4.4115H21.9894H22.0071L23.1526 6.39637H23.1473H23.1296ZM22.0704 4.32114L23.2856 2.21557H25.6356L26.8653 4.34632L25.6822 6.39637H25.6645H23.2681L22.0704 4.32114ZM14.5962 8.62711L15.7793 6.57707H15.7971H18.2225L19.3911 8.60193L18.1703 10.7173L18.1558 10.7423L18.1648 10.7579H15.8259L14.5962 8.62711ZM18.2713 10.7423L19.4544 8.69229H19.4722H19.4775L18.2854 10.7579H18.2803L18.2713 10.7423ZM18.3576 10.8329L19.593 8.69229H21.8686L23.104 10.8329L23.1184 10.8579H23.1235L21.9605 12.8731H19.501L18.338 10.8579H18.3431L18.3576 10.8329ZM23.1761 10.7579L21.984 8.69229H21.9894H22.0071L23.1902 10.7423L23.1813 10.7579H23.1761ZM23.2913 10.7173L22.0704 8.60193L23.239 6.57707H25.6645H25.6822L26.8653 8.62711L25.6356 10.7579H23.2967L23.3057 10.7423L23.2913 10.7173Z" fill="#F6E05E" stroke="#ECC94B" stroke-width="0.1"/>
</svg>
